<?xml version="1.0" standalone="no"?>
<!DOCTYPE svg PUBLIC "-//W3C//DTD SVG 20010904//EN"
 "http://www.w3.org/TR/2001/REC-SVG-20010904/DTD/svg10.dtd">
<svg version="1.0" xmlns="http://www.w3.org/2000/svg"
 width="1430.000000pt" height="1430.000000pt" viewBox="0 0 1430.000000 1430.000000"
 preserveAspectRatio="xMidYMid meet">
<metadata>
Created by potrace 1.14, written by Peter Selinger 2001-2017
</metadata>
<g transform="translate(0.000000,1430.000000) scale(0.100000,-0.100000)"
fill="#000000" stroke="none">
<path d="M5625 13102 c-2 -3 -53 -7 -112 -9 -175 -7 -238 -11 -238 -13 0 -1
-27 -4 -60 -6 -33 -1 -82 -5 -110 -7 -27 -3 -84 -8 -125 -11 -41 -4 -109 -11
-150 -16 -41 -5 -101 -12 -133 -15 -32 -2 -62 -7 -66 -9 -4 -3 -38 -7 -77 -10
-38 -3 -80 -8 -94 -10 -28 -6 -82 -13 -150 -21 -25 -3 -83 -12 -129 -21 -46
-8 -86 -13 -88 -10 -3 3 -13 1 -22 -4 -10 -5 -37 -12 -62 -15 -114 -17 -144
-22 -144 -25 0 -1 -11 -3 -25 -5 -14 -1 -36 -5 -50 -8 -41 -8 -203 -39 -225
-42 -11 -2 -31 -6 -45 -10 -14 -4 -34 -8 -45 -10 -30 -5 -58 -11 -178 -39 -38
-9 -73 -14 -78 -10 -5 3 -9 1 -9 -4 0 -5 -6 -9 -12 -10 -7 0 -24 -3 -38 -7
-14 -4 -34 -8 -45 -10 -34 -7 -56 -12 -181 -44 -67 -18 -131 -33 -143 -34 -12
-1 -21 -5 -21 -9 0 -4 -3 -7 -7 -6 -11 3 -67 -10 -141 -33 -35 -10 -68 -17
-72 -14 -5 3 -10 1 -12 -4 -1 -6 -16 -12 -33 -15 -30 -6 -103 -27 -222 -64
-34 -11 -64 -17 -67 -14 -3 3 -6 -1 -6 -8 0 -7 -3 -11 -6 -7 -3 3 -18 1 -33
-5 -14 -5 -33 -11 -41 -13 -35 -7 -481 -160 -550 -187 -107 -44 -107 -44 -7
-50 15 -1 27 -5 27 -8 0 -3 12 -6 28 -7 32 -1 61 -7 162 -35 41 -11 83 -21 92
-22 10 -1 21 -5 24 -9 4 -4 14 -7 22 -7 17 0 176 -55 204 -70 10 -6 25 -10 33
-10 8 0 15 -4 15 -8 0 -5 6 -9 13 -9 13 0 105 -41 237 -106 95 -47 304 -172
334 -199 11 -10 23 -18 28 -18 4 0 16 -6 25 -14 10 -8 56 -43 103 -77 47 -35
90 -67 96 -73 7 -6 29 -25 50 -42 44 -36 66 -55 178 -157 93 -85 198 -194 296
-307 25 -28 64 -73 87 -98 23 -26 43 -51 43 -56 0 -5 6 -14 14 -20 8 -6 46
-54 85 -106 39 -52 75 -100 81 -107 5 -7 10 -15 10 -18 0 -4 6 -13 13 -20 28
-32 37 -45 32 -45 -3 0 2 -8 11 -17 30 -34 142 -211 136 -217 -3 -3 0 -6 6 -6
7 0 12 -7 12 -15 0 -8 4 -15 9 -15 5 0 12 -8 15 -18 3 -9 22 -42 42 -72 20
-30 37 -60 38 -66 1 -7 7 -18 12 -25 6 -8 24 -39 40 -69 16 -30 33 -58 37 -61
5 -3 9 -10 9 -15 0 -13 61 -138 71 -145 5 -3 8 -9 8 -13 -1 -7 3 -17 72 -173
25 -56 42 -102 39 -102 -4 1 -9 0 -12 -1 -3 -2 -21 -4 -40 -5 -19 -2 -35 -4
-35 -5 0 -2 -13 -4 -30 -6 -55 -5 -109 -14 -185 -31 -41 -9 -82 -17 -90 -18
-9 0 -20 -4 -25 -7 -6 -3 -28 -9 -50 -13 -45 -10 -54 -12 -57 -15 -2 -1 -16
-4 -33 -6 -16 -3 -32 -9 -33 -15 -2 -5 -7 -7 -12 -4 -4 2 -39 -6 -78 -19 -39
-13 -73 -22 -76 -18 -3 3 -6 -1 -6 -8 0 -7 -3 -10 -7 -7 -3 4 -12 2 -20 -4 -7
-6 -13 -9 -13 -6 0 7 -269 -102 -330 -133 -22 -11 -40 -18 -40 -16 0 7 -330
-173 -403 -220 -37 -24 -72 -44 -77 -44 -6 0 -10 -4 -10 -10 0 -5 -6 -10 -13
-10 -7 0 -22 -8 -33 -17 -11 -10 -28 -22 -37 -28 -30 -18 -131 -89 -207 -145
-95 -70 -97 -71 -120 -94 -11 -11 -20 -17 -20 -13 0 3 -17 -9 -37 -27 -21 -18
-90 -78 -153 -131 -263 -224 -537 -507 -795 -820 -22 -27 -46 -54 -52 -61 -7
-7 -13 -16 -13 -20 0 -4 -6 -12 -14 -18 -7 -6 -58 -69 -112 -141 -54 -71 -102
-131 -106 -133 -5 -2 -8 -8 -8 -13 0 -9 -45 -74 -78 -114 -27 -33 -302 -451
-302 -459 0 -5 -60 -96 -70 -106 -3 -3 -6 -11 -8 -19 -2 -7 -16 -33 -33 -57
-16 -24 -26 -44 -22 -44 4 0 3 -4 -3 -8 -6 -4 -23 -30 -37 -59 -15 -28 -31
-54 -36 -57 -5 -4 -12 -20 -16 -36 -4 -17 -10 -30 -14 -30 -4 0 -21 -28 -37
-62 -16 -35 -31 -65 -34 -68 -6 -6 -90 -178 -90 -185 0 -2 21 2 48 10 26 8 61
17 77 20 39 8 60 13 60 15 0 1 11 3 25 5 14 2 70 15 124 29 55 14 102 23 104
21 3 -2 13 0 24 6 11 6 34 12 51 14 18 2 32 4 32 5 0 2 53 11 73 12 6 1 12 5
12 10 0 5 4 7 9 4 5 -3 53 3 107 14 53 11 99 18 102 15 3 -3 10 -1 16 4 6 5
31 12 56 15 45 6 77 11 138 21 62 10 88 14 242 34 85 12 182 23 215 25 33 3
60 6 60 6 0 1 27 4 60 6 33 2 87 6 120 8 33 2 60 4 60 5 0 2 304 12 380 12
111 0 530 -24 530 -30 0 -2 25 -4 56 -6 31 -2 108 -13 170 -25 63 -12 123 -23
134 -25 11 -1 27 -5 35 -8 8 -3 29 -8 45 -11 56 -9 89 -17 99 -24 6 -3 18 -7
26 -9 16 -2 116 -31 140 -40 8 -4 18 -7 23 -8 4 -2 8 -3 10 -5 1 -1 10 -3 19
-5 37 -7 267 -111 343 -155 44 -25 91 -53 105 -61 14 -7 32 -22 41 -31 9 -10
21 -18 26 -18 5 0 24 -15 42 -32 19 -18 36 -33 40 -33 8 0 81 -76 81 -85 0 -8
-85 -72 -97 -73 -4 0 -12 -5 -18 -12 -5 -7 -46 -39 -90 -72 -44 -34 -91 -70
-105 -82 -14 -11 -37 -31 -53 -43 -79 -65 -327 -307 -412 -403 -33 -37 -68
-75 -77 -84 -10 -8 -18 -19 -18 -23 0 -4 -12 -20 -26 -35 -15 -15 -51 -62 -81
-103 -31 -41 -62 -80 -70 -87 -8 -6 -15 -15 -15 -20 0 -4 -11 -22 -24 -39 -13
-17 -24 -36 -24 -41 0 -6 -7 -13 -15 -17 -8 -3 -15 -12 -15 -21 0 -8 -4 -15
-10 -15 -5 0 -10 -4 -10 -9 0 -8 -58 -102 -80 -128 -6 -7 -10 -14 -10 -17 0
-3 -11 -22 -25 -42 -14 -20 -22 -40 -19 -45 3 -5 1 -9 -4 -9 -10 0 -40 -53
-114 -200 -24 -47 -46 -86 -50 -88 -5 -2 -8 -8 -8 -13 0 -6 -16 -45 -36 -87
-20 -42 -37 -83 -37 -89 0 -7 -4 -13 -9 -13 -4 0 -8 -5 -8 -11 0 -6 -14 -43
-32 -82 -17 -40 -31 -78 -31 -84 0 -7 -5 -13 -10 -13 -6 0 -7 -3 -4 -7 4 -3 2
-12 -4 -20 -6 -7 -8 -13 -4 -13 4 0 3 -6 -2 -13 -6 -6 -18 -37 -28 -67 -10
-30 -21 -60 -26 -66 -5 -6 -10 -19 -12 -30 -2 -10 -21 -73 -42 -139 -21 -66
-38 -126 -38 -132 0 -7 -3 -13 -7 -13 -3 0 -6 -8 -7 -17 -1 -19 -10 -58 -13
-58 -1 0 -3 -7 -5 -15 -1 -8 -14 -59 -29 -114 -14 -54 -28 -110 -31 -125 -3
-14 -7 -37 -10 -51 -3 -14 -8 -36 -11 -50 -3 -14 -16 -83 -31 -155 -14 -71
-26 -147 -27 -167 0 -21 -4 -38 -9 -38 -4 0 -5 -11 -3 -25 3 -13 1 -27 -3 -30
-5 -2 -7 -17 -5 -32 1 -15 0 -31 -3 -36 -3 -6 -7 -26 -9 -46 -1 -20 -5 -58 -8
-86 -20 -180 -28 -276 -33 -390 -9 -205 -11 -445 -4 -445 7 0 66 53 147 130
29 27 55 46 58 43 3 -4 6 -1 6 5 0 6 39 43 87 83 49 39 90 76 91 80 2 5 8 9
14 9 5 0 34 20 65 45 30 25 58 45 62 45 5 0 19 9 32 21 13 11 34 29 47 40 12
10 28 19 36 19 8 0 16 4 18 9 2 4 57 43 123 84 66 42 125 80 130 84 6 5 17 9
24 11 8 2 32 15 55 31 22 15 60 36 84 46 23 11 42 22 42 27 0 4 4 8 10 8 5 0
64 27 130 60 66 32 120 56 120 52 0 -4 4 -2 8 3 6 9 58 33 157 73 22 9 43 20
46 25 3 5 9 8 13 7 6 -2 91 29 146 53 14 6 28 11 33 13 4 1 9 3 12 4 3 1 10 4
15 5 6 1 12 4 15 5 3 1 8 3 13 5 4 1 14 4 22 7 87 34 189 66 194 61 3 -4 6 -1
6 5 0 6 7 9 15 6 8 -4 15 -2 15 3 0 5 8 9 18 10 9 1 53 13 96 27 44 15 93 29
109 32 16 2 38 9 49 15 10 5 23 7 28 4 6 -3 10 -2 10 2 0 5 8 9 18 10 9 1 53
11 97 22 44 11 91 22 105 25 14 3 34 7 45 9 109 25 319 67 355 71 25 4 59 9
75 12 17 4 40 7 53 7 12 1 22 3 22 7 0 3 15 6 33 6 17 1 115 13 217 27 213 28
216 28 292 30 32 1 58 5 58 8 0 3 23 5 50 4 28 -1 50 0 50 4 0 3 35 7 78 9
161 7 1091 5 1172 -2 47 -4 111 -8 142 -9 31 -2 60 -6 63 -9 4 -3 20 -4 36 -1
17 2 29 0 29 -7 0 -6 4 -9 9 -6 5 4 32 -5 59 -19 27 -14 56 -25 64 -25 8 0 19
-5 26 -12 7 -7 12 -8 12 -2 0 5 4 4 8 -1 6 -9 138 -59 184 -70 9 -2 25 -8 36
-14 11 -6 22 -8 25 -4 4 3 12 1 19 -4 7 -6 24 -13 38 -16 14 -3 61 -15 105
-27 44 -12 95 -24 114 -26 19 -3 41 -9 50 -13 9 -5 24 -7 33 -6 10 2 20 -1 23
-5 3 -5 12 -7 19 -4 8 3 17 0 21 -5 3 -6 10 -9 14 -6 5 2 44 -2 87 -11 44 -8
100 -16 125 -18 26 -2 51 -6 57 -10 5 -3 21 -6 33 -6 13 1 47 -2 74 -4 143
-15 335 -25 495 -25 135 0 417 12 430 19 3 1 25 4 50 6 46 3 88 8 175 18 50 7
189 31 235 41 14 3 39 8 55 10 39 7 70 13 70 15 0 1 9 3 20 4 18 3 47 11 230
61 33 9 65 21 71 26 6 5 13 6 16 3 3 -3 23 2 44 11 22 9 59 23 84 31 25 8 51
17 58 19 7 3 16 5 20 6 4 0 18 7 32 15 14 7 54 25 90 40 36 14 97 42 135 62
39 20 72 36 75 37 11 1 166 89 183 103 9 8 17 12 17 8 0 -4 6 -2 13 4 6 6 57
40 112 77 55 36 121 84 148 105 26 22 47 36 47 32 0 -4 6 -1 13 8 6 9 46 44
87 79 127 108 222 208 368 385 10 11 26 34 36 50 11 15 27 36 35 46 22 23 123
193 146 246 10 23 22 42 27 42 4 0 8 7 8 15 0 9 11 38 25 66 14 27 23 54 20
59 -4 6 -1 10 4 10 6 0 11 9 11 20 0 11 4 20 8 20 5 0 9 6 10 13 0 6 3 21 5
32 27 108 29 114 61 130 17 8 58 31 91 51 33 19 70 40 83 46 12 6 22 15 22 20
0 4 7 8 15 8 8 0 15 5 15 10 0 6 7 10 16 10 8 0 12 5 9 10 -3 6 1 10 9 10 9 0
57 42 108 92 100 99 128 132 128 148 0 6 4 10 9 10 9 0 42 64 70 136 14 35 22
143 13 159 -4 6 -8 18 -9 28 -5 28 -31 74 -57 99 -32 32 -75 68 -81 68 -3 0
-25 9 -51 20 -25 11 -55 22 -67 24 -12 3 -44 9 -72 15 -57 11 -304 9 -322 -2
-16 -10 -16 1 -2 42 6 17 15 31 20 31 5 0 8 3 7 8 -1 4 8 27 19 52 11 25 60
131 108 235 48 105 88 195 89 201 1 7 8 19 15 28 7 9 11 16 8 16 -5 0 27 73
54 122 5 10 9 23 9 29 0 5 11 35 25 65 14 30 25 56 25 58 0 2 9 23 19 47 11
24 20 49 21 54 0 6 8 20 16 33 8 12 12 22 9 22 -3 0 2 17 11 38 18 42 54 132
58 147 2 6 7 19 11 30 21 51 43 111 44 118 0 4 8 21 17 38 8 17 13 33 10 37
-3 3 -2 10 3 16 10 13 148 438 155 476 3 14 5 26 7 28 1 1 3 7 4 12 1 6 3 11
5 13 1 1 3 9 5 17 1 8 17 69 35 135 18 66 34 134 37 150 2 17 15 82 28 145 13
63 26 138 30 165 3 28 9 70 12 95 3 25 6 64 6 88 1 23 4 42 7 42 3 0 5 44 4
97 0 54 3 106 8 115 4 9 4 19 -1 22 -4 3 -8 37 -7 76 1 38 -2 70 -6 70 -4 0
-5 13 -3 30 2 16 0 32 -5 35 -5 3 -7 16 -4 30 2 13 0 27 -6 30 -6 4 -8 10 -5
16 7 11 -31 142 -56 192 -11 20 -17 37 -14 37 3 0 -8 20 -25 45 -17 25 -28 45
-25 45 3 0 -3 8 -12 18 -10 10 -29 31 -43 48 -47 56 -210 171 -210 148 0 -4
-7 -1 -15 6 -8 7 -15 9 -15 5 0 -4 -6 -2 -14 4 -7 6 -48 14 -90 18 -76 6 -78
7 -94 40 -9 18 -19 33 -23 33 -11 0 -5 19 34 100 19 41 33 78 31 82 -3 5 0 8
5 8 6 0 11 9 11 19 0 11 4 22 9 25 4 3 11 19 14 36 4 16 16 50 27 74 11 25 20
50 20 56 0 7 16 63 35 127 19 63 32 119 29 124 -3 5 0 9 6 9 7 0 10 6 7 14 -3
8 -3 17 1 21 4 4 7 14 8 23 0 9 4 29 8 43 4 14 9 34 11 45 2 10 4 19 5 19 1 0
3 16 6 35 2 19 9 62 15 95 6 33 13 74 15 90 2 17 6 44 9 60 8 44 17 114 20
160 2 22 4 40 5 40 1 0 3 23 5 50 2 28 6 75 9 105 3 30 8 151 12 268 l7 212
-29 1 c-16 0 -38 2 -49 4 -11 2 -49 7 -85 10 -36 3 -81 8 -100 11 -114 16
-660 25 -677 12 -9 -7 -13 -7 -13 1 0 7 -4 9 -10 6 -5 -3 -71 -8 -146 -10 -75
-2 -159 -6 -188 -9 -28 -3 -85 -8 -126 -12 -103 -8 -169 -14 -210 -19 -19 -2
-57 -6 -85 -9 -61 -7 -92 -13 -105 -21 -6 -3 -10 -1 -10 5 0 7 -6 8 -19 1 -14
-8 -24 -4 -47 20 -16 17 -73 67 -126 112 -54 45 -98 85 -98 89 0 5 -7 8 -15 8
-8 0 -19 9 -25 20 -6 11 -16 20 -23 20 -7 0 -28 15 -47 33 -19 18 -87 70 -150
117 -63 46 -118 88 -122 94 -4 6 -8 7 -8 3 0 -5 -13 2 -29 15 -15 12 -37 29
-47 35 -10 7 -58 40 -106 72 -49 33 -88 57 -88 54 0 -4 -10 3 -22 14 -13 11
-36 28 -53 37 -16 9 -43 25 -60 36 -38 24 -46 29 -242 139 -90 50 -167 91
-173 91 -5 0 -10 5 -10 10 0 6 -4 10 -10 10 -5 0 -76 32 -157 71 -82 40 -154
72 -160 72 -7 0 -13 5 -13 10 0 6 -3 7 -7 4 -3 -4 -13 -1 -21 5 -8 7 -28 18
-46 24 -79 30 -101 40 -106 46 -3 4 -15 9 -25 11 -21 4 -27 6 -132 51 -34 14
-69 26 -78 26 -8 0 -15 5 -15 12 0 6 -3 9 -6 5 -3 -3 -34 5 -67 18 -163 61
-601 198 -665 208 -12 2 -25 6 -28 10 -4 4 -20 7 -36 7 -15 0 -36 4 -46 9 -16
8 -162 44 -222 55 -14 3 -38 8 -55 11 -16 4 -38 7 -47 8 -10 1 -18 4 -18 7 0
3 -10 6 -22 6 -13 1 -70 10 -128 22 -58 12 -123 24 -145 27 -82 12 -91 14
-125 21 -19 4 -46 8 -60 10 -41 5 -93 12 -130 17 -115 16 -311 37 -385 42 -27
2 -52 4 -55 6 -3 1 -23 3 -45 5 -22 1 -80 5 -130 9 -49 3 -124 9 -165 11 -101
7 -1049 12 -1055 6z"/>
</g>
</svg>
