<svg xmlns="http://www.w3.org/2000/svg"><style>:root svg:not(:target){display:none}</style><svg fill="none" id="icon-close" viewBox="0 0 20 20"><path d="M.293 18.291a1 1 0 1 0 1.414 1.414L10 11.413l8.292 8.292a1 1 0 1 0 1.414-1.414l-8.292-8.292 8.292-8.292A1 1 0 1 0 18.291.293L9.999 8.585 1.707.293A1 1 0 1 0 .293 1.707L8.585 10 .293 18.291z" fill="#fff"></path></svg><svg fill="none" id="logo" viewBox="0 0 58 44"><g clip-path="url(#logo_0)"><path d="M35.598.103c-1.54-.421-3.145.43-3.589 1.89l-11.6 38.5c-.444 1.462.453 2.983 1.994 3.404 1.54.42 3.145-.43 3.589-1.89l11.6-38.5c.444-1.462-.453-2.983-1.994-3.404Zm7.304 10.321a2.655 2.655 0 0 0 0 3.893L50.995 22l-8.102 7.683a2.654 2.654 0 0 0 0 3.893c1.133 1.074 2.973 1.074 4.106 0l10.15-9.625a2.655 2.655 0 0 0 0-3.893l-10.15-9.625c-1.133-1.074-2.973-1.074-4.106 0l.01-.009Zm-27.794 0c-1.133-1.074-2.973-1.074-4.106 0L.852 20.05a2.655 2.655 0 0 0 0 3.893l10.15 9.625c1.133 1.074 2.973 1.074 4.106 0a2.655 2.655 0 0 0 0-3.893L7.006 22l8.102-7.683a2.655 2.655 0 0 0 0-3.893Z" fill="#7B4AE2"></path></g><defs><clipPath id="logo_0"><path fill="#fff" d="M0 0h58v44H0z"></path></clipPath></defs></svg></svg>