<svg width="58" height="44" fill="none" xmlns="http://www.w3.org/2000/svg"><g clip-path="url(#a)"><path d="M35.598.103c-1.54-.421-3.145.43-3.589 1.89l-11.6 38.5c-.444 1.462.453 2.983 1.994 3.404 1.54.42 3.145-.43 3.589-1.89l11.6-38.5c.444-1.462-.453-2.983-1.994-3.404Zm7.304 10.321a2.655 2.655 0 0 0 0 3.893L50.995 22l-8.102 7.683a2.654 2.654 0 0 0 0 3.893c1.133 1.074 2.973 1.074 4.106 0l10.15-9.625a2.655 2.655 0 0 0 0-3.893l-10.15-9.625c-1.133-1.074-2.973-1.074-4.106 0l.01-.009Zm-27.794 0c-1.133-1.074-2.973-1.074-4.106 0L.852 20.05a2.655 2.655 0 0 0 0 3.893l10.15 9.625c1.133 1.074 2.973 1.074 4.106 0a2.655 2.655 0 0 0 0-3.893L7.006 22l8.102-7.683a2.655 2.655 0 0 0 0-3.893Z" fill="#7B4AE2"/></g><defs><clipPath id="a"><path fill="#fff" d="M0 0h58v44H0z"/></clipPath></defs></svg>